<?xml version="1.0" encoding="UTF-8"?>
<svg id="Layer_1" data-name="Layer 1" xmlns="http://www.w3.org/2000/svg" viewBox="0 0 612 612">
  <defs>
    <style>
      .cls-1 {
        stroke-width: 118px;
      }

      .cls-1, .cls-2, .cls-3, .cls-4 {
        fill: none;
        stroke-linecap: round;
      }

      .cls-1, .cls-5, .cls-3 {
        stroke-miterlimit: 10;
      }

      .cls-1, .cls-5, .cls-4 {
        stroke: #fff;
      }

      .cls-6 {
        fill: #b9e3e4;
      }

      .cls-7 {
        fill: #231f20;
      }

      .cls-2 {
        stroke: #00aca5;
        stroke-width: 70px;
      }

      .cls-2, .cls-4 {
        stroke-linejoin: round;
      }

      .cls-5 {
        fill: #fff;
        stroke-width: 40px;
      }

      .cls-3 {
        stroke: #848484;
        stroke-width: 78.5px;
      }

      .cls-4 {
        stroke-width: 119px;
      }
    </style>
  </defs>
  <path class="cls-7" d="M306.003958,91.22998c-118.619995,0-214.780029,96.150024-214.780029,214.77002s96.160034,214.769958,214.780029,214.769958c118.609985,0,214.77002-96.149963,214.77002-214.769958s-96.160034-214.77002-214.77002-214.77002ZM306.003958,476.329956c-94.070007,0-170.330017-76.259949-170.330017-170.329956s76.26001-170.330017,170.330017-170.330017c94.060059,0,170.320068,76.26001,170.320068,170.330017s-76.26001,170.329956-170.320068,170.329956Z"/>
  <path class="cls-6" d="M434.14385,306c0,70.769958-57.369873,128.149963-128.139893,128.149963-70.780029,0-128.150024-57.380005-128.150024-128.149963s57.369995-128.150024,128.150024-128.150024c21.26001,0,41.310059,5.179993,58.959961,14.350037,12.679932,6.579956,24.119995,15.209961,33.869995,25.469971l.079956.080017c8.51001,8.950012,15.72998,19.130005,21.380127,30.25,8.859863,17.409973,13.849854,37.130005,13.849854,58Z"/>
  <g>
    <polyline class="cls-4" points="226.799806 262.472944 279.87881 332.997334 380.770532 232.105612"/>
    <polyline class="cls-2" points="226.799806 262.472944 279.87881 332.997334 380.770532 232.105612"/>
  </g>
  <path class="cls-5" d="M391.814016,276.47998l28.47998-28.47998c-5.650146-11.119995-12.870117-21.299988-21.380127-30.25l-.079956-.080017,99.908311-100.43828c8.160034-8.210022,8.150024-21.470032-.039917-29.660034l-.040039-.039978c-8.219971-8.179993-21.52002-8.140015-29.699951.080017l-103.998399,104.588304-5.829956,5.859985-22.869995,22.869995s-11.323437,13.183069-12.353749,17.079799c-1.255214,4.747328-17.232232,65.004321-17.232232,65.004321-.226279.862693.021234,1.774845.650569,2.40418s1.541488.876849,2.404137.650526c0,0,61.129094-16.190643,65.011442-17.225111s17.069881-12.363728,17.069881-12.363728Z"/>
  <g>
    <line class="cls-1" x1="396.94815" y1="215.78422" x2="495.155696" y2="117.576674"/>
    <line class="cls-3" x1="396.94815" y1="215.78422" x2="495.155696" y2="117.576674"/>
  </g>
  <path class="cls-7" d="M391.814016,276.47998l28.47998-28.47998c-5.650146-11.119995-12.870117-21.299988-21.380127-30.25l-.079956-.080017,99.908311-100.43828c8.160034-8.210022,8.150024-21.470032-.039917-29.660034l-.040039-.039978c-8.219971-8.179993-21.52002-8.140015-29.699951.080017l-103.998399,104.588304-5.829956,5.859985-22.869995,22.869995s-11.323437,13.183069-12.353749,17.079799c-1.255214,4.747328-17.232232,65.004321-17.232232,65.004321-.226279.862693.021234,1.774845.650569,2.40418s1.541488.876849,2.404137.650526c0,0,61.129094-16.190643,65.011442-17.225111s17.069881-12.363728,17.069881-12.363728Z"/>
  <g>
    <path class="cls-7" d="M498.742225,117.231703l-99.908311,100.43828.079956.080017c8.51001,8.950012,15.72998,19.130005,21.380127,30.25l-28.47998,28.47998c-1.410156,1.419983-3.48999,1.960022-5.420166,1.400024l-18.509888-5.380005c-.910034-.27002-1.710083-.75-2.349976-1.400024-1.130127-1.130005-1.75-2.72998-1.590088-4.419983l1.930054-19.809998-19.809937,1.940002c-2.630127.25-5.080078-1.400024-5.810059-3.950012l-5.380005-18.5c-.559937-1.929993-.02002-4.01001,1.390015-5.429993l22.869995-22.869995,5.829956-5.859985,103.998399-104.588304c8.179932-8.220032,21.47998-8.26001,29.699951-.080017l.040039.039978c8.189941,8.190002,8.199951,21.450012.039917,29.660034Z"/>
    <path class="cls-7" d="M374.744135,288.843708l-65.011442,17.225111c-.86265.226323-1.774802-.021191-2.404137-.650526s-.876849-1.541488-.650569-2.40418l17.232232-65.004321c.332319-1.251593,1.562678-2.043549,2.835505-1.831382,1.272784.226279,2.17078,1.378824,2.06474,2.672841l-2.701153,33.234062,12.056162-.007121c1.378867.007121,2.496064,1.124319,2.503186,2.503186l-.007121,12.056162,33.234062-2.701153c1.293974-.106083,2.446562.791956,2.672841,2.06474.212123,1.272784-.572755,2.51022-1.824304,2.842583Z"/>
  </g>
</svg>