<?xml version="1.0" encoding="UTF-8"?>
<svg id="Layer_1" xmlns="http://www.w3.org/2000/svg" version="1.1" viewBox="0 0 612 612">
  <!-- Generator: Adobe Illustrator 29.8.2, SVG Export Plug-In . SVG Version: 2.1.1 Build 3)  -->
  <defs>
    <style>
      .st0 {
        stroke-width: 118px;
      }

      .st0, .st1, .st2, .st3 {
        fill: none;
        stroke-linecap: round;
      }

      .st0, .st1, .st4 {
        stroke-miterlimit: 10;
      }

      .st0, .st4, .st3 {
        stroke: #fff;
      }

      .st5 {
        fill: #231f20;
      }

      .st1 {
        stroke: #848484;
        stroke-width: 78.5px;
      }

      .st2 {
        stroke: #00aca5;
        stroke-width: 70px;
      }

      .st2, .st3 {
        stroke-linejoin: round;
      }

      .st4 {
        fill: #fff;
        stroke-width: 40px;
      }

      .st3 {
        stroke-width: 119px;
      }

      .st6 {
        fill: #b9e3e4;
      }
    </style>
  </defs>
  <path class="st5" d="M306,91.2c-118.6,0-214.8,96.2-214.8,214.8s96.2,214.8,214.8,214.8,214.8-96.1,214.8-214.8-96.2-214.8-214.8-214.8ZM306,476.3c-94.1,0-170.3-76.3-170.3-170.3s76.3-170.3,170.3-170.3,170.3,76.3,170.3,170.3-76.3,170.3-170.3,170.3Z"/>
  <path class="st6" d="M434.1,306c0,70.8-57.4,128.1-128.1,128.1s-128.2-57.4-128.2-128.1,57.4-128.2,128.2-128.2,41.3,5.2,59,14.4c12.7,6.6,24.1,15.2,33.9,25.5h0c8.5,9,15.7,19.2,21.4,30.3,8.9,17.4,13.8,37.1,13.8,58Z"/>
  <g>
    <polyline class="st3" points="226.8 262.5 279.9 333 380.8 232.1"/>
    <polyline class="st2" points="226.8 262.5 279.9 333 380.8 232.1"/>
  </g>
  <path class="st4" d="M391.8,276.5l28.5-28.5c-5.7-11.1-12.9-21.3-21.4-30.2h0c0,0,99.9-100.5,99.9-100.5,8.2-8.2,8.2-21.5,0-29.7h0c-8.2-8.2-21.5-8.2-29.7,0l-104,104.6-5.8,5.9-22.9,22.9s-11.3,13.2-12.4,17.1c-1.3,4.7-17.2,65-17.2,65-.2.9,0,1.8.7,2.4s1.5.9,2.4.7c0,0,61.1-16.2,65-17.2s17.1-12.4,17.1-12.4h0Z"/>
  <g>
    <line class="st0" x1="396.9" y1="215.8" x2="495.2" y2="117.6"/>
    <line class="st1" x1="396.9" y1="215.8" x2="495.2" y2="117.6"/>
  </g>
  <path class="st5" d="M391.8,276.5l28.5-28.5c-5.7-11.1-12.9-21.3-21.4-30.2h0c0,0,99.9-100.5,99.9-100.5,8.2-8.2,8.2-21.5,0-29.7h0c-8.2-8.2-21.5-8.2-29.7,0l-104,104.6-5.8,5.9-22.9,22.9s-11.3,13.2-12.4,17.1c-1.3,4.7-17.2,65-17.2,65-.2.9,0,1.8.7,2.4s1.5.9,2.4.7c0,0,61.1-16.2,65-17.2s17.1-12.4,17.1-12.4h0Z"/>
  <g>
    <path class="st5" d="M498.7,117.2l-99.9,100.4h0c8.5,9,15.7,19.2,21.4,30.3l-28.5,28.5c-1.4,1.4-3.5,2-5.4,1.4l-18.5-5.4c-.9-.3-1.7-.8-2.3-1.4-1.1-1.1-1.8-2.7-1.6-4.4l1.9-19.8-19.8,1.9c-2.6.2-5.1-1.4-5.8-4l-5.4-18.5c-.6-1.9,0-4,1.4-5.4l22.9-22.9,5.8-5.9,104-104.6c8.2-8.2,21.5-8.3,29.7,0h0c8.2,8.2,8.2,21.5,0,29.7h0Z"/>
    <path class="st5" d="M374.7,288.8l-65,17.2c-.9.2-1.8,0-2.4-.7s-.9-1.5-.7-2.4l17.2-65c.3-1.3,1.6-2,2.8-1.8,1.3.2,2.2,1.4,2.1,2.7l-2.7,33.2h12.1c1.4,0,2.5,1.1,2.5,2.5v12.1s33.2-2.7,33.2-2.7c1.3-.1,2.4.8,2.7,2.1.2,1.3-.6,2.5-1.8,2.8Z"/>
  </g>
</svg>