<?xml version="1.0" encoding="UTF-8"?>
<svg id="Layer_1" data-name="Layer 1" xmlns="http://www.w3.org/2000/svg" viewBox="0 0 612 612">
  <defs>
    <style>
      .cls-1 {
        stroke-width: 118px;
      }

      .cls-1, .cls-2, .cls-3, .cls-4 {
        fill: none;
        stroke-linecap: round;
      }

      .cls-1, .cls-2, .cls-5 {
        stroke-miterlimit: 10;
      }

      .cls-1, .cls-5, .cls-4 {
        stroke: #fff;
      }

      .cls-6, .cls-5 {
        fill: #fff;
      }

      .cls-7 {
        fill: #231f20;
      }

      .cls-2 {
        stroke: #848484;
        stroke-width: 78.5px;
      }

      .cls-3 {
        stroke: #00aca5;
        stroke-width: 70px;
      }

      .cls-3, .cls-4 {
        stroke-linejoin: round;
      }

      .cls-5 {
        stroke-width: 40px;
      }

      .cls-4 {
        stroke-width: 119px;
      }

      .cls-8 {
        fill: #b9e3e4;
      }
    </style>
  </defs>
  <path class="cls-6" d="M306,91.199997c-118.600006,0-214.800003,96.199997-214.800003,214.800003s96.199997,214.799988,214.800003,214.799988,214.799988-96.100006,214.799988-214.799988-96.200012-214.800003-214.799988-214.800003ZM306,476.299988c-94.100006,0-170.300003-76.299988-170.300003-170.299988s76.300003-170.300003,170.300003-170.300003,170.299988,76.300003,170.299988,170.300003-76.299988,170.299988-170.299988,170.299988Z"/>
  <path class="cls-8" d="M434.100006,306c0,70.799988-57.399994,128.100006-128.100006,128.100006s-128.199997-57.399994-128.199997-128.100006,57.400009-128.199997,128.199997-128.199997,41.299988,5.199997,59,14.399994c12.700012,6.600006,24.100006,15.199997,33.899994,25.5h0c8.5,9,15.700012,19.199997,21.399994,30.300003,8.899994,17.399994,13.799988,37.100006,13.799988,58h.000031Z"/>
  <g>
    <polyline class="cls-4" points="226.800003 262.5 279.899994 333 380.799988 232.100006"/>
    <polyline class="cls-3" points="226.800003 262.5 279.899994 333 380.799988 232.100006"/>
  </g>
  <path class="cls-5" d="M391.799988,276.5l28.5-28.5c-5.700012-11.100006-12.899994-21.300003-21.399994-30.199997h0l99.899994-100.5c8.200012-8.199997,8.200012-21.5,0-29.699997h0c-8.200012-8.199997-21.5-8.199997-29.700012,0l-104,104.600006-5.799988,5.899994-22.899994,22.899994s-11.299988,13.199997-12.399994,17.100006c-1.299988,4.699997-17.200012,65-17.200012,65-.200012.899994,0,1.799988.700012,2.399994s1.5.899994,2.399994.700012c0,0,61.100006-16.200012,65-17.200012s17.100006-12.399994,17.100006-12.399994h0l-.200012-.100006Z"/>
  <g>
    <line class="cls-1" x1="396.899994" y1="215.800003" x2="495.200012" y2="117.599998"/>
    <line class="cls-2" x1="396.899994" y1="215.800003" x2="495.200012" y2="117.599998"/>
  </g>
  <path class="cls-7" d="M391.799988,276.5l28.5-28.5c-5.700012-11.100006-12.899994-21.300003-21.399994-30.199997h0l99.899994-100.5c8.200012-8.199997,8.200012-21.5,0-29.699997h0c-8.200012-8.199997-21.5-8.199997-29.700012,0l-104,104.600006-5.799988,5.899994-22.899994,22.899994s-11.299988,13.199997-12.399994,17.100006c-1.299988,4.699997-17.200012,65-17.200012,65-.200012.899994,0,1.799988.700012,2.399994s1.5.899994,2.399994.700012c0,0,61.100006-16.200012,65-17.200012s17.100006-12.399994,17.100006-12.399994h0l-.200012-.100006Z"/>
  <g>
    <path class="cls-7" d="M498.700012,117.199997l-99.899994,100.400009h0c8.5,9,15.700012,19.199997,21.399994,30.300003l-28.5,28.500015c-1.399994,1.399994-3.5,2-5.399994,1.399994l-18.5-5.399994c-.899994-.299988-1.700012-.799988-2.299988-1.399994-1.100006-1.100006-1.799988-2.700012-1.600006-4.399994l1.899994-19.800003-19.799988,1.899994c-2.600006.199997-5.100006-1.399994-5.799988-4l-5.399994-18.5c-.600006-1.899994,0-4,1.399994-5.399994l22.899994-22.899994,5.799988-5.899994,104-104.599998c8.200012-8.199997,21.5-8.300003,29.700012,0h0c8.200012,8.199997,8.200012,21.5,0,29.700005h0l.099976.099945Z"/>
    <path class="cls-7" d="M374.700012,288.799988l-65,17.200012c-.899994.200012-1.799988,0-2.399994-.700012s-.899994-1.5-.700012-2.399994l17.200012-65c.299988-1.300003,1.600006-2,2.799988-1.800003,1.299988.199997,2.200012,1.399994,2.100006,2.699997l-2.700012,33.200012h12.100006c1.399994,0,2.5,1.100006,2.5,2.5v12.100006l33.200012-2.700012c1.299988-.100006,2.399994.799988,2.700012,2.100006.200012,1.299988-.600006,2.5-1.799988,2.799988h-.000031Z"/>
  </g>
</svg>